<svg xmlns="http://www.w3.org/2000/svg" fill="none" viewBox="0 0 24 24" id="Sentiment-Stressed-Fill--Streamline-Sharp-Fill-Material" height="24" width="24">
  <desc>
    Sentiment Stressed Fill Streamline Icon: https://streamlinehq.com
  </desc>
  <path fill="#f1f1f1" d="M12 22c-1.38335 0 -2.68335 -0.2625 -3.9 -0.7875 -1.21665 -0.525 -2.275 -1.2375 -3.175 -2.1375 -0.9 -0.9 -1.6125 -1.95835 -2.1375 -3.175C2.2625 14.68335 2 13.38335 2 12s0.2625 -2.68335 0.7875 -3.9c0.525 -1.21665 1.2375 -2.275 2.1375 -3.175 0.9 -0.9 1.95835 -1.6125 3.175 -2.1375C9.31665 2.2625 10.61665 2 12 2s2.68335 0.2625 3.9 0.7875c1.21665 0.525 2.275 1.2375 3.175 2.1375 0.9 0.9 1.6125 1.95835 2.1375 3.175C21.7375 9.31665 22 10.61665 22 12s-0.2625 2.68335 -0.7875 3.9c-0.525 1.21665 -1.2375 2.275 -2.1375 3.175 -0.9 0.9 -1.95835 1.6125 -3.175 2.1375C14.68335 21.7375 13.38335 22 12 22Zm-4.55 -9.4 3.575 -2.6 -3.575 -2.6 -0.9 1.2 1.925 1.4 -1.925 1.4 0.9 1.2Zm3.05 4.45 1.5 -1.5 1.5 1.5 1.5 -1.5 0.975 0.975 1.05 -1.05L15 13.45l-1.5 1.5 -1.5 -1.5 -1.5 1.5 -1.5 -1.5 -2.025 2.025 1.05 1.05L9 15.55l1.5 1.5Zm6.05 -4.45 0.9 -1.2 -1.925 -1.4 1.925 -1.4 -0.9 -1.2 -3.575 2.6 3.575 2.6Z" stroke-width="0.5"></path>
</svg>