<svg xmlns="http://www.w3.org/2000/svg" fill="none" viewBox="0 0 24 24" height="96" width="96">
  <desc>
    Close glyph for the selection-mode exit capsule (single path, recolored via colorize).
  </desc>
  <path fill="#ffffff" d="m8.25 16.8 3.75 -3.75 3.75 3.75 1.05 -1.05 -3.75 -3.75 3.75 -3.75 -1.05 -1.05 -3.75 3.75 -3.75 -3.75 -1.05 1.05 3.75 3.75 -3.75 3.75 1.05 1.05ZM12 22c-1.36665 0 -2.65835 -0.2625 -3.875 -0.7875 -1.21665 -0.525 -2.27915 -1.24165 -3.1875 -2.15 -0.908335 -0.90835 -1.625 -1.97085 -2.15 -3.1875C2.2625 14.65835 2 13.36665 2 12c0 -1.38335 0.2625 -2.68335 0.7875 -3.9 0.525 -1.21665 1.241665 -2.275 2.15 -3.175 0.90835 -0.9 1.97085 -1.6125 3.1875 -2.1375C9.34165 2.2625 10.63335 2 12 2c1.38335 0 2.68335 0.2625 3.9 0.7875 1.21665 0.525 2.275 1.2375 3.175 2.1375 0.9 0.9 1.6125 1.95835 2.1375 3.175C21.7375 9.31665 22 10.61665 22 12c0 1.36665 -0.2625 2.65835 -0.7875 3.875 -0.525 1.21665 -1.2375 2.27915 -2.1375 3.1875 -0.9 0.90835 -1.95835 1.625 -3.175 2.15C14.68335 21.7375 13.38335 22 12 22Z" stroke-width="0.5"></path>
</svg>
