<svg xmlns="http://www.w3.org/2000/svg" fill="none" viewBox="0 0 24 24" id="Motion-Photos-On-Fill--Streamline-Sharp-Fill-Material" height="24" width="24">
  <desc>
    Motion Photos On Fill Streamline Icon: https://streamlinehq.com
  </desc>
  <path fill="#f1f1f1" d="M12 22c-1.38335 0 -2.68335 -0.2625 -3.9 -0.7875 -1.21665 -0.525 -2.275 -1.2375 -3.175 -2.1375 -0.9 -0.9 -1.6125 -1.95835 -2.1375 -3.175C2.2625 14.68335 2 13.38335 2 12c0 -0.7 0.066665 -1.37915 0.2 -2.0375s0.341665 -1.30415 0.625 -1.9375L3.95 9.15c-0.133335 0.46665 -0.241665 0.93735 -0.325 1.412C3.541665 11.03665 3.5 11.516 3.5 12c0 2.37285 0.823415 4.38275 2.47025 6.02975C7.61725 19.6766 9.62715 20.5 12 20.5c2.373 0 4.3829 -0.8234 6.02975 -2.47025C19.6766 16.38275 20.5 14.37285 20.5 12c0 -2.373 -0.82415 -4.3829 -2.4725 -6.02975C16.37935 4.323415 14.36775 3.5 11.99275 3.5c-0.4785 0 -0.9554 0.039665 -1.43075 0.119 -0.47535 0.0795 -0.946 0.189835 -1.412 0.331L8 2.8c0.63335 -0.233335 1.27085 -0.425 1.9125 -0.575C10.55415 2.075 11.21665 2 11.9 2c1.38935 0 2.695 0.2625 3.917 0.7875 1.222 0.525 2.2909 1.2375 3.20675 2.1375 0.91565 0.9 1.64065 1.95835 2.175 3.175C21.7329 9.31665 22 10.61665 22 12s-0.2625 2.68335 -0.7875 3.9c-0.525 1.21665 -1.2375 2.275 -2.1375 3.175 -0.9 0.9 -1.95835 1.6125 -3.175 2.1375C14.68335 21.7375 13.38335 22 12 22ZM5.322 6.525c-0.348 0 -0.642835 -0.12185 -0.8845 -0.3655 -0.241665 -0.24365 -0.3625 -0.5395 -0.3625 -0.8875s0.121835 -0.642835 0.3655 -0.8845c0.243665 -0.241665 0.5395 -0.3625 0.8875 -0.3625s0.64285 0.121835 0.8845 0.3655c0.24165 0.243665 0.3625 0.5395 0.3625 0.8875s-0.12185 0.64285 -0.3655 0.8845c-0.24365 0.24165 -0.5395 0.3625 -0.8875 0.3625ZM5 11.994c0 -1.946 0.68115 -3.59815 2.0435 -4.9565C8.40565 5.67915 10.05985 5 12.006 5c1.946 0 3.59815 0.68115 4.9565 2.0435C18.32085 8.40565 19 10.05985 19 12.006c0 1.946 -0.68115 3.59815 -2.0435 4.9565C15.59435 18.32085 13.94015 19 11.994 19c-1.946 0 -3.59815 -0.68115 -4.9565 -2.0435C5.67915 15.59435 5 13.94015 5 11.994Z" stroke-width="0.5"></path>
</svg>