<svg xmlns="http://www.w3.org/2000/svg" fill="none" viewBox="0 0 24 24" id="Progress-Activity-Fill--Streamline-Sharp-Fill-Material" height="24" width="24">
  <desc>
    Progress Activity Fill Streamline Icon: https://streamlinehq.com
  </desc>
  <path fill="#f1f1f1" d="M12 22c-1.4 0 -2.70835 -0.25835 -3.925 -0.775S5.8 20 4.9 19.1c-0.9 -0.9 -1.608335 -1.95835 -2.125 -3.175C2.258335 14.70835 2 13.4 2 12c0 -1.3955 0.258335 -2.70265 0.775 -3.9215C3.291665 6.8595 4 5.8 4.9 4.9c0.9 -0.9 1.95835 -1.608335 3.175 -2.125C9.29165 2.258335 10.6 2 12 2v1.5c-2.35515 0 -4.36065 0.827335 -6.0165 2.482C4.327835 7.63665 3.5 9.64085 3.5 11.9945s0.827335 4.35965 2.482 6.018C7.63665 19.67085 9.64085 20.5 11.9945 20.5s4.35965 -0.82785 6.018 -2.4835C19.67085 16.36065 20.5 14.35515 20.5 12h1.5c0 1.4 -0.25835 2.70835 -0.775 3.925S20 18.2 19.1 19.1c-0.9 0.9 -1.9595 1.60835 -3.1785 2.125C14.70265 21.74165 13.3955 22 12 22Z" stroke-width="0.5"></path>
</svg>