<svg xmlns="http://www.w3.org/2000/svg" fill="none" viewBox="0 0 24 24" id="Settings-Fill--Streamline-Sharp-Fill-Material" height="96" width="96">
  <desc>
    Settings Fill Streamline Icon: https://streamlinehq.com
  </desc>
  <path fill="#f1f1f1" d="m9.7 22 -0.5 -3.15c-0.31665 -0.11665 -0.65 -0.275 -1 -0.475 -0.35 -0.2 -0.65835 -0.40835 -0.925 -0.625l-2.95 1.35L2 15l2.7 -1.975c-0.033335 -0.15 -0.054165 -0.32085 -0.0625 -0.5125 -0.008335 -0.19165 -0.0125 -0.3625 -0.0125 -0.5125 0 -0.15 0.004165 -0.32085 0.0125 -0.5125 0.008335 -0.19165 0.029165 -0.3625 0.0625 -0.5125L2 9l2.325 -4.1 2.95 1.35c0.26665 -0.21665 0.575 -0.425 0.925 -0.625 0.35 -0.2 0.68335 -0.35 1 -0.45l0.5 -3.175h4.6l0.5 3.15c0.31665 0.11665 0.65415 0.27085 1.0125 0.4625 0.35835 0.19165 0.6625 0.40415 0.9125 0.6375l2.95 -1.35L22 9l-2.7 1.925c0.03335 0.16665 0.05415 0.34585 0.0625 0.5375 0.00835 0.19165 0.0125 0.37085 0.0125 0.5375 0 0.16665 -0.00415 0.34165 -0.0125 0.525s-0.02915 0.35835 -0.0625 0.525L22 15l-2.325 4.1 -2.95 -1.35c-0.26665 0.21665 -0.57085 0.42915 -0.9125 0.6375 -0.34165 0.20835 -0.67915 0.3625 -1.0125 0.4625l-0.5 3.15h-4.6ZM12 15.25c0.9 0 1.66665 -0.31665 2.3 -0.95 0.63335 -0.63335 0.95 -1.4 0.95 -2.3 0 -0.9 -0.31665 -1.66665 -0.95 -2.3 -0.63335 -0.63335 -1.4 -0.95 -2.3 -0.95 -0.9 0 -1.66665 0.31665 -2.3 0.95 -0.63335 0.63335 -0.95 1.4 -0.95 2.3 0 0.9 0.31665 1.66665 0.95 2.3 0.63335 0.63335 1.4 0.95 2.3 0.95Z" stroke-width="0.5"></path>
</svg>